<?xml version="1.0" encoding="UTF-8"?>
<svg id="Layer_2" data-name="Layer 2" xmlns="http://www.w3.org/2000/svg" viewBox="0 0 207.29 34.47">
  <defs>
    <style>
      .cls-1 {
        fill: #2e3192;
      }
    </style>
  </defs>
  <g id="Layer_1-2" data-name="Layer 1">
    <g>
      <path class="cls-1" d="M38.73,23.46V0h8.14V23.46c0,6.04-4.96,11-11,11-3.78,0-6.47-1.73-8.58-4.8L13.48,9.38c-.49-.76-1.24-1.24-2.16-1.24-1.67,0-3.18,1.08-3.18,2.86v23.46H0V11C0,4.96,4.96,0,11,0c3.72,0,6.85,1.4,8.9,4.58l13.38,20.39c.59,.86,1.56,1.35,2.59,1.35,1.56,0,2.86-1.29,2.86-2.86Z"/>
      <path class="cls-1" d="M87.11,0c5.83,0,10.73,4.91,10.73,10.73,0,1.62-.38,3.18-1.08,4.58,2.7,1.94,4.48,5.07,4.48,8.58,0,5.72-4.8,10.57-10.52,10.57H53.94V13.32h33.12c1.4,0,2.59-1.19,2.59-2.59s-1.19-2.59-2.59-2.59h-24.92v2.37l-8.2-3.51V2.32c0-1.29,1.02-2.32,2.32-2.32h30.85Zm5.99,23.89c0-1.29-1.08-2.37-2.37-2.37h-28.59v4.75h28.59c1.29,0,2.37-1.08,2.37-2.37Z"/>
      <path class="cls-1" d="M123.84,34.47c-9.44,0-17.21-7.82-17.21-17.26S114.4,0,123.84,0h13.65c9.44,0,17.21,7.77,17.21,17.21s-7.77,17.26-17.21,17.26h-13.65Zm-9.01-17.26c0,4.96,4.1,9.06,9.06,9.06h13.54c4.96,0,9.06-4.1,9.06-9.06s-4.1-9.06-9.06-9.06h-13.54c-4.96,0-9.06,4.1-9.06,9.06Z"/>
      <path class="cls-1" d="M171.42,8.14c-1.46,0-2.64,1.19-2.64,2.59s1.19,2.64,2.64,2.64h25.35c5.72,0,10.52,4.8,10.52,10.52s-4.8,10.57-10.52,10.57h-36.14l3.51-8.2h32.63c1.29,0,2.37-1.08,2.37-2.37s-1.08-2.37-2.37-2.37h-25.35c-5.93,0-10.79-4.85-10.79-10.79s4.85-10.73,10.79-10.73h35.87l-3.51,8.14h-32.36Z"/>
    </g>
  </g>
</svg>